<svg width="48" height="48" viewBox="0 0 48 48" fill="none" xmlns="http://www.w3.org/2000/svg">
<path fill-rule="evenodd" clip-rule="evenodd" d="M24 47C36.7025 47 47 36.7025 47 24C47 11.2975 36.7025 1 24 1C11.2975 1 1 11.2975 1 24C1 36.7025 11.2975 47 24 47ZM24 48C37.2548 48 48 37.2548 48 24C48 10.7452 37.2548 0 24 0C10.7452 0 0 10.7452 0 24C0 37.2548 10.7452 48 24 48Z" fill="#394150"/>
<path d="M18.7304 22.8796L15.0132 24.7835V34.9378L18.7304 33.0792V22.8796Z" fill="#394150"/>
<path d="M29.5196 19.5704L33.2368 21.4743V33.0792L29.5196 31.2206V19.5704Z" fill="#394150"/>
<path d="M26.0741 12L22.3569 13.9039V32.0366L26.0741 30.178V12Z" fill="#394150"/>
</svg>
