<svg width="48" height="48" viewBox="0 0 48 48" fill="none" xmlns="http://www.w3.org/2000/svg">
<path fill-rule="evenodd" clip-rule="evenodd" d="M24 47C36.7025 47 47 36.7025 47 24C47 11.2975 36.7025 1 24 1C11.2975 1 1 11.2975 1 24C1 36.7025 11.2975 47 24 47ZM24 48C37.2548 48 48 37.2548 48 24C48 10.7452 37.2548 0 24 0C10.7452 0 0 10.7452 0 24C0 37.2548 10.7452 48 24 48Z" fill="#394150"/>
<path fill-rule="evenodd" clip-rule="evenodd" d="M10.125 19.159C10.125 15.8975 12.7689 13.2536 16.0303 13.2536H23V16.2536H16.0303C14.4258 16.2536 13.125 17.5544 13.125 19.159C13.125 20.7635 14.4258 22.0643 16.0303 22.0643H22V25.0643H16.0303C12.7689 25.0643 10.125 22.4204 10.125 19.159Z" fill="#394150"/>
<path fill-rule="evenodd" clip-rule="evenodd" d="M10.125 27.9696C10.125 24.7082 12.7689 22.0643 16.0303 22.0643H22V25.0643H16.0303C14.4258 25.0643 13.125 26.3651 13.125 27.9696C13.125 29.5742 14.4258 30.875 16.0303 30.875H23V33.875H16.0303C12.7689 33.875 10.125 31.2311 10.125 27.9696Z" fill="#394150"/>
<path fill-rule="evenodd" clip-rule="evenodd" d="M34.9326 33.9104L25.4326 20.3396H28.8169L38.3169 33.9104H34.9326Z" fill="#394150"/>
<path fill-rule="evenodd" clip-rule="evenodd" d="M28.8174 33.9104L38.3174 20.3396H34.9331L25.4331 33.9104H28.8174Z" fill="#394150"/>
</svg>
