<svg width="48" height="48" viewBox="0 0 48 48" fill="none" xmlns="http://www.w3.org/2000/svg">
<path fill-rule="evenodd" clip-rule="evenodd" d="M24 47C36.7025 47 47 36.7025 47 24C47 11.2975 36.7025 1 24 1C11.2975 1 1 11.2975 1 24C1 36.7025 11.2975 47 24 47ZM24 48C37.2548 48 48 37.2548 48 24C48 10.7452 37.2548 0 24 0C10.7452 0 0 10.7452 0 24C0 37.2548 10.7452 48 24 48Z" fill="#394150"/>
<path d="M27.382 14.0451C21.6647 13.502 16.3137 17.9326 16.0372 23.4456C15.8578 27.0168 15.9848 30.6029 15.9512 34.1853C15.9437 34.8028 16.1941 34.9851 16.7808 34.974C18.3016 34.9479 19.8225 34.9256 21.3396 34.9888C22.1804 35.0223 22.4644 34.7842 22.4569 33.91C22.4158 29.7734 22.4457 25.6367 22.442 21.5001C22.442 21.2359 22.4009 20.9718 22.3747 20.6444C21.2948 21.5856 20.7305 22.9434 20.7231 24.61C20.7119 27.1396 20.7231 29.6729 20.7193 32.2025C20.7193 32.5299 20.6857 32.8535 20.667 33.1921H17.6776C17.6552 32.861 17.6215 32.5894 17.6178 32.3216C17.6178 29.6655 17.6029 27.0131 17.6253 24.357C17.6514 21.4071 18.9332 19.0634 21.2836 17.3262C22.498 16.4297 23.8582 15.7935 25.551 15.7675V35C26.3432 34.9442 27.012 34.9107 27.6809 34.8475C32.8302 34.349 36.9817 29.8031 36.9967 24.6509C37.0042 21.4108 36.9967 18.1706 36.9967 14.9268C36.9967 14.6292 36.9668 14.3316 36.9518 14.0489H30.6367V28.356C31.6157 27.2214 32.165 26.1129 32.1725 24.7923C32.1912 22.4784 32.1837 20.1608 32.1837 17.847C32.1837 15.5294 32.1837 15.5555 34.508 15.5778C35.2142 15.5852 35.4048 15.827 35.3973 16.5003C35.3637 19.0932 35.3861 21.6861 35.3824 24.2789C35.3787 26.6634 34.5753 28.7578 32.9348 30.4913C31.4737 32.0389 29.6726 32.9651 27.3857 33.2107V14.0451H27.382ZM12.76 34.814V14.3241C11.5381 15.3843 11 16.5859 11 18.0516C11.0075 23.3563 11 28.6611 11.0037 33.9658C11.0037 34.2337 11.0374 34.5052 11.0561 34.814H12.76Z" fill="#394150"/>
<path d="M27.3827 14.0451V33.207C29.6696 32.9614 31.4707 32.0351 32.9318 30.4876C34.5685 28.7541 35.3756 26.6634 35.3794 24.2752C35.3831 21.6823 35.3644 19.0895 35.3943 16.4966C35.4018 15.8233 35.2112 15.5815 34.505 15.5741C32.177 15.5555 32.1807 15.5294 32.1807 17.8433C32.1807 20.1571 32.1844 22.4747 32.1695 24.7885C32.1583 26.1092 31.6127 27.2177 30.6337 28.3523V14.0489H36.9488C36.9638 14.3316 36.9936 14.6292 36.9936 14.9268C36.9974 18.1669 37.0049 21.4071 36.9936 24.6509C36.9824 29.8031 32.8272 34.3453 27.6779 34.8475C27.009 34.9107 26.3364 34.9442 25.5479 35V15.7675C23.8514 15.7935 22.495 16.4297 21.2806 17.3262C18.9301 19.0634 17.6484 21.4071 17.6223 24.357C17.5998 27.0131 17.611 29.6655 17.6148 32.3216C17.6148 32.5931 17.6484 32.861 17.6746 33.1921H20.664C20.6827 32.8535 20.7163 32.5299 20.7163 32.2025C20.72 29.6729 20.7088 27.1396 20.72 24.61C20.7275 22.9471 21.2918 21.5856 22.3717 20.6444C22.3978 20.9718 22.4389 21.2359 22.4389 21.5001C22.4389 25.6367 22.4128 29.7734 22.4539 33.91C22.4614 34.7805 22.1811 35.0223 21.3366 34.9888C19.8195 34.9256 18.2986 34.9516 16.7777 34.974C16.1948 34.9851 15.9444 34.8028 15.9482 34.1853C15.9818 30.6067 15.8548 27.0206 16.0341 23.4456C16.3144 17.9326 21.6654 13.502 27.3827 14.0451Z" fill="#394150"/>
<path d="M12.76 34.8139H11.0561C11.0374 34.5052 11.0037 34.2373 11.0037 33.9658C11 28.661 11.0075 23.3563 11 18.0515C11 16.5859 11.5381 15.3843 12.76 14.3241V34.8139Z" fill="#394150"/>
</svg>
