<svg width="261" height="200" viewBox="0 0 261 200" fill="none" xmlns="http://www.w3.org/2000/svg">
<mask id="mask0_602_40020" style="mask-type:alpha" maskUnits="userSpaceOnUse" x="0" y="0" width="261" height="200">
<path d="M260.884 192C260.884 196.418 257.302 200 252.884 200L8.88379 200C4.46552 200 0.883789 196.418 0.88379 192L0.883807 -2.27299e-05L260.884 0L260.884 192Z" fill="#D9D9D9"/>
</mask>
<g mask="url(#mask0_602_40020)">
<rect x="1.18799" y="0.250481" width="260" height="200" fill="#0052FF"/>
<circle cx="130.884" cy="247.053" r="125.881" fill="#2B48A9"/>
<rect x="218.884" y="156.498" width="44.75" height="146.498" transform="rotate(-180 218.884 156.498)" fill="url(#paint0_linear_602_40020)"/>
<path d="M192.726 131.013C192.726 133.444 193.057 142.543 193.718 146.753C193.628 147.713 193.897 148.324 194.21 148.521C195.506 148.521 195.314 148.11 194.776 146.092C194.459 143.658 195.482 137.01 196.033 133.989L197.355 128.17C197.642 129.867 198.334 132.971 198.81 131.807C199.405 130.352 197.515 118.861 195.857 118.861C194.865 118.861 193.893 117.734 194.865 116.778C195.857 115.803 195.9 113.29 193.718 112.959C191.535 112.628 191.382 115.066 191.977 116.256C192.453 117.208 191.639 117.925 191.242 118.168C189.649 119.141 188.493 120.515 188.493 123.276C188.493 124.977 190.829 131.013 192.726 131.013Z" fill="#F5F3E7"/>
<path d="M197.45 132.559C197.45 132.089 197.831 132.153 198.302 132.153C198.772 132.153 199.153 132.089 199.153 132.559V135.998C199.153 136.468 198.772 136.451 198.302 136.451C197.831 136.451 197.45 136.468 197.45 135.998V132.559Z" fill="#F5F3E7"/>
<path d="M191.949 142.157C191.88 140.147 193.232 134.803 193.917 132.383C194.824 129.635 189.943 124.619 191.035 142.614C190.886 143.389 191.058 143.908 191.298 144.094C192.356 144.195 192.231 143.844 191.949 142.157Z" fill="#F5F3E7"/>
<path d="M190.884 82.9711C190.884 82.9711 151.908 58.9837 116.303 93.3797C80.6992 127.776 41.7231 103.788 41.7231 103.788" stroke="url(#paint1_linear_602_40020)"/>
<circle cx="192.613" cy="83.6368" r="2.5" transform="rotate(45 192.613 83.6368)" fill="#F5F3E7"/>
</g>
<defs>
<linearGradient id="paint0_linear_602_40020" x1="241.259" y1="156.498" x2="241.259" y2="241.406" gradientUnits="userSpaceOnUse">
<stop stop-color="#2B48A9"/>
<stop offset="1" stop-color="#2B48A9" stop-opacity="0"/>
</linearGradient>
<linearGradient id="paint1_linear_602_40020" x1="177.538" y1="59.1186" x2="55.0685" y2="127.641" gradientUnits="userSpaceOnUse">
<stop stop-color="white"/>
<stop offset="1" stop-color="white" stop-opacity="0"/>
</linearGradient>
</defs>
</svg>
