<svg width="261" height="200" viewBox="0 0 261 200" fill="none" xmlns="http://www.w3.org/2000/svg">
<mask id="mask0_602_40078" style="mask-type:alpha" maskUnits="userSpaceOnUse" x="0" y="0" width="261" height="200">
<path d="M260.884 192C260.884 196.418 257.302 200 252.884 200L8.88379 200C4.46552 200 0.883789 196.418 0.88379 192L0.883807 7.78766e-06L260.884 3.05176e-05L260.884 192Z" fill="#D9D9D9"/>
</mask>
<g mask="url(#mask0_602_40078)">
<rect x="1.18799" y="0.250511" width="260" height="200" fill="#0052FF"/>
<circle cx="136.601" cy="1.40291" r="50.9679" transform="rotate(-90 136.601 1.40291)" fill="#2B48A9"/>
<path d="M85.6333 7.62509L187.569 7.62509L187.569 200L85.6333 200L85.6333 7.62509Z" fill="url(#paint0_linear_602_40078)"/>
<path d="M40.303 154.771C42.8214 153.064 46.3622 150.661 47.9616 149.595C47.9616 149.595 47.9753 149.944 47.9616 150.167C47.8296 152.315 44.4446 154.409 44.4446 154.409C44.365 154.512 44.3173 154.639 44.3133 154.771L44.3173 156.223C44.3173 156.398 44.3929 156.561 44.5321 156.668C44.6674 156.772 44.8424 156.812 45.0095 156.772L48.3992 155.952L48.5504 156.406C48.6339 156.632 48.8448 156.788 49.0835 156.788C51.3439 156.788 49.5579 156.788 52.322 156.788C52.5607 156.788 52.7716 156.632 52.8551 156.406L53.0063 155.952L56.396 156.772C56.5631 156.812 56.7381 156.772 56.8734 156.668C57.0047 156.561 57.0882 156.398 57.0882 156.223L57.0922 154.771C57.0882 154.639 57.0405 154.512 56.9609 154.409C56.9609 154.409 53.5759 152.315 53.4439 150.167C53.4302 149.944 53.4439 149.595 53.4439 149.595C55.0433 150.661 58.5841 153.064 61.1025 154.771C61.2537 154.874 61.4407 154.894 61.6118 154.834C61.6874 154.806 61.759 154.759 61.8147 154.703C61.8823 154.635 61.9301 154.548 61.9579 154.448L62.6223 151.954C62.6701 151.771 62.6263 151.584 62.5109 151.445L60.7644 149.388L60.7644 144.112C60.7644 142.815 60.2352 141.554 59.3122 140.647C59.2088 140.543 59.0576 140.488 58.9104 140.492C58.7632 140.488 58.604 140.551 58.5125 140.659C57.6094 141.578 57.1121 142.791 57.1081 144.076L57.1121 145.075L54.0288 141.443L53.9134 139.322C53.9015 139.024 53.6508 138.789 53.3564 138.789L52.6403 138.789L52.1708 131.771C52.1708 131.731 52.1629 131.691 52.1549 131.66L51.2478 128.27C51.1802 128.027 50.9574 127.852 50.7028 127.852C50.4481 127.852 50.2253 128.027 50.1577 128.27L49.2506 131.66C49.2427 131.691 49.2347 131.731 49.2347 131.771L48.7652 138.789L48.0491 138.789C47.7547 138.789 47.5041 139.024 47.4921 139.322L47.3767 141.443L44.2934 145.075L44.2974 144.076C44.2934 142.791 43.7961 141.578 42.885 140.651C42.6662 140.432 42.3121 140.428 42.0933 140.647C41.1942 141.554 40.6412 142.815 40.6412 144.112L40.6412 149.388L38.8946 151.445C38.7792 151.584 38.7355 151.771 38.7832 151.954L39.4476 154.448C39.4914 154.627 39.6227 154.767 39.7937 154.834C39.9648 154.894 40.1518 154.874 40.303 154.771Z" fill="#F5F3E7"/>
<path d="M193.502 103.7L193.502 159" stroke="url(#paint1_linear_602_40078)"/>
<path d="M138.502 69.0848L138.502 199" stroke="url(#paint2_linear_602_40078)"/>
<path d="M50.7029 154.585L50.7029 284.5" stroke="url(#paint3_linear_602_40078)"/>
<path fill-rule="evenodd" clip-rule="evenodd" d="M194.901 88.2073V92.6251L203.273 94.2251C204.064 94.3764 204.636 95.0693 204.634 95.8748L204.632 96.4772C204.63 97.4009 203.881 98.1486 202.957 98.1486H194.901V104.951L197.197 105.557C197.492 105.634 197.697 105.901 197.696 106.206L197.695 106.865C197.694 107.235 197.394 107.534 197.025 107.534H189.752C189.388 107.534 189.091 107.244 189.082 106.881L189.065 106.219C189.057 105.908 189.263 105.633 189.564 105.553L191.847 104.951V98.1486H183.839C182.93 98.1486 182.187 97.4246 182.164 96.5164L182.148 95.9077C182.127 95.0877 182.703 94.3729 183.509 94.2189L191.847 92.6251V88.2073C191.847 87.485 192.266 85.4374 192.676 83.5529C192.831 82.8411 193.917 82.8411 194.072 83.5529C194.483 85.4374 194.901 87.4848 194.901 88.2073Z" fill="#F5F3E7"/>
<path d="M149.92 66.2548C150.825 67.3415 149.87 68.9996 148.466 68.8244C146.832 68.6206 145.227 68.4814 143.637 68.4083C142.835 69.2608 141.065 69.8962 138.99 69.9742C136.914 70.0521 135.102 69.5517 134.239 68.7621C132.665 68.9537 131.074 69.2123 129.454 69.5393C128.067 69.8191 126.989 68.2372 127.811 67.0856L129.835 64.2473L129.759 62.2322C129.742 61.7633 130.108 61.3678 130.577 61.3502C130.99 61.3347 131.343 61.615 131.436 62.0023L132.261 60.8455L132.182 58.7358C132.164 58.2669 132.531 57.8714 133 57.8538C133.441 57.8372 133.812 58.1608 133.87 58.5894L136.305 55.1752L136.129 50.4989L137.197 44.9246C137.179 44.4555 137.546 44.0603 138.015 44.0426C138.484 44.025 138.88 44.3916 138.897 44.8608L140.381 50.3395L140.556 55.016L143.24 58.2379C143.266 57.8061 143.612 57.4556 144.053 57.439C144.522 57.4214 144.917 57.788 144.935 58.2572L145.014 60.3669L145.924 61.4586C145.987 61.0654 146.319 60.7593 146.731 60.7438C147.2 60.7261 147.596 61.0927 147.613 61.5619L147.689 63.577L149.92 66.2548Z" fill="#F5F3E7"/>
</g>
<defs>
<linearGradient id="paint0_linear_602_40078" x1="136.601" y1="7.62514" x2="136.601" y2="119.122" gradientUnits="userSpaceOnUse">
<stop stop-color="#2B48A9"/>
<stop offset="1" stop-color="#2B48A9" stop-opacity="0"/>
</linearGradient>
<linearGradient id="paint1_linear_602_40078" x1="194.002" y1="103.7" x2="194.002" y2="159" gradientUnits="userSpaceOnUse">
<stop stop-color="white"/>
<stop offset="1" stop-color="white" stop-opacity="0"/>
</linearGradient>
<linearGradient id="paint2_linear_602_40078" x1="139.002" y1="69.0848" x2="139.002" y2="199" gradientUnits="userSpaceOnUse">
<stop stop-color="white"/>
<stop offset="1" stop-color="white" stop-opacity="0"/>
</linearGradient>
<linearGradient id="paint3_linear_602_40078" x1="51.2029" y1="154.585" x2="51.2029" y2="284.5" gradientUnits="userSpaceOnUse">
<stop stop-color="#F5F3E7"/>
<stop offset="1" stop-color="#F5F3E7" stop-opacity="0"/>
</linearGradient>
</defs>
</svg>
