<svg width="261" height="200" viewBox="0 0 261 200" fill="none" xmlns="http://www.w3.org/2000/svg">
<mask id="mask0_602_40036" style="mask-type:alpha" maskUnits="userSpaceOnUse" x="0" y="0" width="261" height="200">
<path d="M260.884 192C260.884 196.418 257.302 200 252.884 200L8.88379 200C4.46552 200 0.883789 196.418 0.88379 192L0.883807 7.78766e-06L260.884 3.05176e-05L260.884 192Z" fill="#D9D9D9"/>
</mask>
<g mask="url(#mask0_602_40036)">
<rect x="1.18799" y="0.250511" width="260" height="200" fill="#0052FF"/>
<rect x="124.384" y="101.75" width="77" height="83.25" fill="url(#paint0_linear_602_40036)"/>
<rect x="67.4998" y="108.5" width="48.3841" height="93" fill="url(#paint1_linear_602_40036)"/>
<path d="M86.1382 99.6524L115.884 108.531L97.2496 118.348L67.5039 108.504L86.1382 99.6524Z" fill="#2B48A9"/>
<rect x="61.2678" y="72.75" width="48" height="83.25" fill="url(#paint2_linear_602_40036)"/>
<ellipse cx="162.884" cy="101.75" rx="38.5" ry="11.75" fill="#2B48A9"/>
<path d="M168.778 61.748C168.491 62.4011 168.992 62.9177 169.279 63.0943C169.541 63.3092 170.267 63.9165 171.069 64.6269C172.072 65.515 172.502 66.1166 172.559 67.2911C172.616 68.4656 173.16 74.2521 173.361 76.372C173.562 78.4918 173.934 81.2992 173.504 81.9867C173.075 82.6742 172.96 81.6143 172.187 81.07C171.568 80.6346 172.349 79.8191 172.817 79.4658C172.702 77.642 172.267 73.7995 171.442 73.0203C170.41 72.0464 170.582 75.7704 170.726 76.859C170.726 78.2518 171.442 78.8971 169.545 82.3729C168.832 83.6798 168.411 85.3324 169.064 86.6847C170.458 88.2507 173.219 91.8598 173.694 92.413C175.16 93.4087 174.392 93.8749 173.246 95.3932C172.101 96.9115 171.298 97.1693 171.785 95.9088C172.817 94.0725 171.948 93.4261 171.785 92.815L168.384 89.4535C168.212 89.8068 168.024 90.6981 167.775 91.5832C166.586 95.0129 166.028 95.2213 165.627 96.3672C165.225 97.513 165.598 98 163.535 98C161.473 98 161.587 97.1693 162.218 97.1693C163.535 97.0596 163.737 96.7554 164.096 96.3672L164.76 94.7086C166.579 90.1539 166.486 87.1717 165.054 84.307C163.908 82.0153 164.29 75.4266 164.624 72.4188C163.841 73.5455 162.12 75.9136 161.501 76.372C160.728 76.9449 161.874 76.7157 161.043 77.7184C160.212 78.721 160.585 80.1247 160.04 79.8668C159.496 79.609 159.725 77.346 161.702 74.2521C163.283 71.7771 163.736 70.4326 163.764 70.0698V66.8041C163.764 64.6269 165.369 64.4551 165.942 64.2975C166.515 64.14 167.431 62.7363 166.486 62.7506C165.541 62.7649 166.128 61.748 165.455 59.5995C164.916 57.8807 166.357 57.2982 167.145 57.2218C167.594 57.1502 168.649 57.3078 169.279 58.5109C170.067 60.0148 169.136 60.9315 168.778 61.748Z" fill="#F5F3E7"/>
<ellipse cx="85.2678" cy="74.75" rx="24" ry="7.75" fill="#2B48A9"/>
<path d="M139.884 58.5C111.933 54.1303 84.6891 44.1089 116.24 35.4906C155.679 24.7177 233.847 28.3519 290.341 33.4139" stroke="#F5F3E7"/>
<circle cx="142.022" cy="58.9837" r="2.5" fill="#F5F3E7"/>
</g>
<defs>
<linearGradient id="paint0_linear_602_40036" x1="162.884" y1="101.75" x2="162.884" y2="150" gradientUnits="userSpaceOnUse">
<stop stop-color="#2B48A9"/>
<stop offset="1" stop-color="#2B48A9" stop-opacity="0"/>
</linearGradient>
<linearGradient id="paint1_linear_602_40036" x1="91.6918" y1="108.5" x2="91.6918" y2="162.401" gradientUnits="userSpaceOnUse">
<stop stop-color="#2B48A9"/>
<stop offset="1" stop-color="#2B48A9" stop-opacity="0"/>
</linearGradient>
<linearGradient id="paint2_linear_602_40036" x1="85.2678" y1="72.75" x2="85.2678" y2="121" gradientUnits="userSpaceOnUse">
<stop stop-color="#2B48A9"/>
<stop offset="1" stop-color="#2B48A9" stop-opacity="0"/>
</linearGradient>
</defs>
</svg>
