<svg width="48" height="48" viewBox="0 0 48 48" fill="none" xmlns="http://www.w3.org/2000/svg">
<path d="M33.4541 32.1613C33.2573 32.6915 33.0493 33.2067 32.7708 33.7066C32.4811 34.2218 32.158 34.7028 31.82 35.18C31.4041 35.7671 30.8767 36.2557 30.3419 36.7141C29.9036 37.0928 29.4023 37.4186 28.8823 37.6913C28.4738 37.9034 28.0541 38.0814 27.6419 38.2822C27.1999 38.4981 26.7394 38.6344 26.2826 38.7367C25.8295 38.8389 25.369 38.9791 24.8973 38.9791C24.1768 38.9791 23.4526 39.0473 22.7395 38.9374C22.1713 38.8503 21.5993 38.7556 21.0608 38.5738C20.8566 38.5056 20.6114 38.4715 20.4146 38.2973C20.2809 38.1799 20.0469 38.1761 19.8575 38.089C19.5641 37.9526 19.2856 37.7935 19.0033 37.642C18.5725 37.411 18.1677 37.1383 17.7926 36.8125C17.2986 36.3845 16.8233 35.9376 16.3924 35.4452C15.9356 34.9225 15.5382 34.343 15.1854 33.7407C14.8995 33.2559 14.6543 32.7332 14.5503 32.1613C14.5318 32.0135 14.6469 31.809 14.3795 31.7787C14.2087 31.3583 14.2347 30.8886 14.0712 30.4682C13.9673 30.1917 14.0341 29.8962 14.0007 29.6121C14.0007 29.0516 14.0007 28.491 14.0007 27.9304C13.9858 27.2789 14.2161 26.6767 14.3275 26.0517C14.4129 25.5669 14.6023 25.1351 14.7732 24.7109C14.9923 24.1654 15.2151 23.5935 15.6237 23.1314C15.7574 22.9799 15.8836 22.9799 15.9802 23.0443C16.5187 23.3965 17.0944 23.6731 17.6366 24.0177C18.0043 24.2488 18.4054 24.4533 18.7805 24.673C19.1296 24.8775 19.4861 25.0821 19.8241 25.3131C20.1472 25.5366 20.4889 25.7411 20.8343 25.9343C21.0534 26.0593 21.2799 26.1691 21.4954 26.3055C22.1193 26.6956 22.7692 27.0441 23.3894 27.438C23.5714 27.5554 23.8017 27.5744 23.9465 27.76C23.9614 27.7789 24.0357 27.7789 24.0579 27.76C24.3439 27.4872 24.7116 27.3433 25.0458 27.1615C25.5398 26.8926 25.9818 26.5365 26.498 26.3055C26.732 26.2032 26.9177 26.0176 27.1479 25.8964C27.393 25.7676 27.6493 25.654 27.8796 25.4911C28.2955 25.1957 28.7375 24.9381 29.172 24.6844C29.5991 24.4344 30.0336 24.1882 30.4682 23.942C30.9621 23.6617 31.4412 23.3473 31.9277 23.0519C32.1246 22.9307 32.3882 23.0291 32.5145 23.2716C32.7114 23.6541 32.897 24.0442 33.0827 24.4306C33.4319 25.1578 33.6287 25.9381 33.8367 26.7146C33.9332 27.0782 33.9704 27.4304 33.9964 27.7941C33.9964 28.4152 33.9964 29.0402 33.9964 29.6614C34.0298 30.2598 33.8255 30.8128 33.6695 31.3734C33.6324 31.506 33.6398 31.6348 33.6213 31.7673C33.3576 31.7976 33.469 32.006 33.4504 32.1499L33.4541 32.1613Z" fill="#394150"/>
<path d="M23.9997 10.0037C24.073 10.1024 24.1574 10.1901 24.2308 10.2961C24.5206 10.7311 24.7701 11.1918 25.0562 11.6341C25.2763 11.9741 25.5258 12.3031 25.6982 12.6833C25.834 12.9758 26.0174 13.2938 26.2668 13.5059C26.4062 13.6265 26.3879 13.7654 26.4466 13.8787C26.6264 14.248 26.9492 14.5075 27.14 14.8768C27.261 15.1107 27.4481 15.352 27.6132 15.5787C27.9471 16.0429 28.1892 16.5694 28.512 17.0446C28.7248 17.3554 28.9082 17.6844 29.143 17.9805C29.3741 18.2766 29.5722 18.6056 29.7483 18.9383C29.9281 19.271 30.1189 19.6 30.3647 19.8851C30.6178 20.1813 30.7609 20.5359 30.981 20.8466C31.0727 20.9745 30.8085 21.055 30.7058 21.1171C30.4087 21.3036 30.1078 21.5046 29.7924 21.6326C29.2677 21.8446 28.8679 22.2723 28.3139 22.4259C28.1525 22.4697 28.0351 22.6598 27.8774 22.7512C27.5472 22.945 27.184 23.0876 26.8685 23.3033C26.1201 23.8187 25.2873 24.1916 24.5316 24.6961C24.3702 24.8058 24.1647 24.8277 24.029 24.9739C23.996 25.0105 23.9666 25.0068 23.93 24.9739C23.453 24.601 22.8771 24.3963 22.3781 24.0527C22.0663 23.837 21.7068 23.6835 21.3803 23.4751C21.0134 23.2411 20.6282 23.0364 20.2614 22.8024C19.9312 22.594 19.5717 22.4222 19.2342 22.2138C18.6582 21.8629 18.0382 21.5924 17.4843 21.1939C17.3228 21.0769 17.0037 21.044 17 20.8612C17 20.7369 17.1761 20.5249 17.2935 20.364C17.598 19.9436 17.8401 19.4793 18.1483 19.0626C18.5408 18.5289 18.871 17.9549 19.2195 17.3992C19.7001 16.6279 20.2173 15.8748 20.6796 15.0888C20.9364 14.6501 21.2335 14.2297 21.5307 13.8129C21.6481 13.6484 21.7435 13.4401 21.8572 13.2573C22.1177 12.8442 22.3891 12.4384 22.657 12.0253C23.0642 11.3928 23.4677 10.7641 23.8676 10.128C23.9006 10.0768 23.9116 10.0183 23.996 10L23.9997 10.0037ZM23.974 12.8405C23.7465 13.3633 23.4274 13.7764 23.1412 14.2005C22.7377 14.7963 22.3561 15.4068 21.9416 15.9954C21.7105 16.3244 21.5711 16.7156 21.3326 17.0373C21.0905 17.359 20.9107 17.7136 20.6723 18.0353C20.3788 18.4301 20.155 18.8652 19.8688 19.2637C19.6597 19.5525 19.48 19.8669 19.2929 20.1739C19.2305 20.2763 19.1975 20.4006 19.3882 20.5066C20.0523 20.8795 20.6906 21.2999 21.3436 21.6874C21.6921 21.8958 22.092 22.0493 22.4112 22.276C22.8037 22.5538 23.2659 22.7074 23.6291 23.0254C23.7502 23.1314 23.9116 23.2301 24.1207 23.1278C24.3849 22.9962 24.671 22.8646 24.8948 22.7037C25.2543 22.4478 25.6615 22.2943 26.0137 22.042C26.3292 21.8154 26.7071 21.6801 27.0226 21.4644C27.6022 21.0623 28.2626 20.7991 28.8128 20.364C27.2207 17.8854 25.6138 15.3886 23.974 12.8405V12.8405Z" fill="#394150"/>
<path fill-rule="evenodd" clip-rule="evenodd" d="M24 47C36.7025 47 47 36.7025 47 24C47 11.2975 36.7025 1 24 1C11.2975 1 1 11.2975 1 24C1 36.7025 11.2975 47 24 47ZM24 48C37.2548 48 48 37.2548 48 24C48 10.7452 37.2548 0 24 0C10.7452 0 0 10.7452 0 24C0 37.2548 10.7452 48 24 48Z" fill="#394150"/>
</svg>
