<svg width="48" height="48" viewBox="0 0 48 48" fill="none" xmlns="http://www.w3.org/2000/svg">
<path fill-rule="evenodd" clip-rule="evenodd" d="M24 47C36.7025 47 47 36.7025 47 24C47 11.2975 36.7025 1 24 1C11.2975 1 1 11.2975 1 24C1 36.7025 11.2975 47 24 47ZM24 48C37.2548 48 48 37.2548 48 24C48 10.7452 37.2548 0 24 0C10.7452 0 0 10.7452 0 24C0 37.2548 10.7452 48 24 48Z" fill="#394150"/>
<path d="M21.6043 33.3061C17.962 32.0736 15.3403 28.6275 15.3403 24.569C15.3403 20.5105 17.962 17.0644 21.6043 15.8319C20.676 15.5178 19.6813 15.3475 18.6469 15.3475C13.5539 15.3475 9.42529 19.4761 9.42529 24.569C9.42529 29.6619 13.5539 33.7906 18.6469 33.7906C19.6813 33.7906 20.676 33.6203 21.6043 33.3061Z" fill="#394150"/>
<path d="M26.3957 33.3061C30.038 32.0736 32.6597 28.6275 32.6597 24.569C32.6597 20.5105 30.038 17.0644 26.3957 15.8319C27.324 15.5178 28.3187 15.3475 29.3531 15.3475C34.4461 15.3475 38.5747 19.4761 38.5747 24.569C38.5747 29.6619 34.4461 33.7906 29.3531 33.7906C28.3187 33.7906 27.324 33.6202 26.3957 33.3061Z" fill="#394150"/>
</svg>
