<svg width="48" height="48" viewBox="0 0 48 48" fill="none" xmlns="http://www.w3.org/2000/svg">
<path fill-rule="evenodd" clip-rule="evenodd" d="M24 47C36.7025 47 47 36.7025 47 24C47 11.2975 36.7025 1 24 1C11.2975 1 1 11.2975 1 24C1 36.7025 11.2975 47 24 47ZM24 48C37.2548 48 48 37.2548 48 24C48 10.7452 37.2548 0 24 0C10.7452 0 0 10.7452 0 24C0 37.2548 10.7452 48 24 48Z" fill="#394150"/>
<path d="M12.3501 15.6587C12.3501 13.638 13.9882 11.9999 16.0089 11.9999V11.9999V30.2419H12.3501V15.6587Z" fill="#394150"/>
<path d="M31.9911 11.9999C34.0118 11.9999 35.6499 13.638 35.6499 15.6587V15.6587L17.4079 15.6587L17.4079 11.9999L31.9911 11.9999Z" fill="#394150"/>
<path d="M35.6499 31.6413C35.6499 33.662 34.0118 35.3 31.9911 35.3V35.3L31.9911 17.0581L35.6499 17.0581L35.6499 31.6413Z" fill="#394150"/>
<path d="M16.0089 35.3C13.9882 35.3 12.3501 33.662 12.3501 31.6413V31.6413L30.5921 31.6413L30.5921 35.3001L16.0089 35.3Z" fill="#394150"/>
<rect x="22.7544" y="19.3546" width="2.49236" height="8.5907" fill="#394150"/>
<rect x="28.2959" y="22.4038" width="2.49236" height="8.5907" transform="rotate(90 28.2959 22.4038)" fill="#394150"/>
</svg>
