<svg width="702" height="220" viewBox="0 0 702 220" fill="none" xmlns="http://www.w3.org/2000/svg">
<path opacity="0.7" d="M620.642 133.01L151.057 133.01" stroke="url(#paint0_linear_724_1571)"/>
<g opacity="0.7" filter="url(#filter0_b_724_1571)">
<path d="M623.291 119.353C625.532 122.66 628.688 127.31 630.088 129.411C630.088 129.411 629.629 129.429 629.336 129.411C626.515 129.237 623.766 124.792 623.766 124.792C623.63 124.687 623.463 124.625 623.291 124.62L621.384 124.625C621.154 124.625 620.939 124.724 620.798 124.907C620.662 125.085 620.61 125.314 620.662 125.534L621.739 129.985L621.143 130.184C620.845 130.294 620.642 130.571 620.642 130.884C620.642 133.853 620.642 131.507 620.642 135.137C620.642 135.451 620.845 135.727 621.143 135.837L621.739 136.036L620.662 140.487C620.61 140.707 620.663 140.937 620.798 141.114C620.939 141.287 621.154 141.396 621.384 141.396L623.291 141.402C623.463 141.396 623.63 141.334 623.766 141.229C623.766 141.229 626.515 136.784 629.336 136.61C629.629 136.592 630.088 136.61 630.088 136.61C628.688 138.711 625.532 143.361 623.291 146.668C623.155 146.867 623.129 147.112 623.207 147.337C623.244 147.436 623.306 147.53 623.379 147.603C623.468 147.692 623.583 147.755 623.714 147.792L626.99 148.664C627.23 148.727 627.476 148.669 627.659 148.518L630.36 146.224L637.288 146.224C638.991 146.224 640.647 145.529 641.839 144.317C641.974 144.181 642.048 143.983 642.042 143.789C642.048 143.596 641.964 143.387 641.823 143.267C640.616 142.081 639.022 141.428 637.335 141.422L636.023 141.428L640.794 137.378L643.578 137.227C643.97 137.211 644.279 136.882 644.279 136.496L644.279 135.555L653.495 134.939C653.547 134.939 653.6 134.928 653.641 134.918L658.093 133.726C658.412 133.638 658.642 133.345 658.642 133.011C658.642 132.676 658.412 132.384 658.093 132.295L653.641 131.104C653.6 131.093 653.547 131.083 653.495 131.083L644.279 130.466L644.279 129.526C644.279 129.139 643.97 128.81 643.578 128.794L640.794 128.643L636.023 124.593L637.335 124.599C639.022 124.593 640.616 123.94 641.833 122.744C642.121 122.456 642.126 121.991 641.839 121.704C640.647 120.523 638.991 119.797 637.288 119.797L630.36 119.797L627.659 117.503C627.476 117.352 627.23 117.294 626.99 117.357L623.714 118.23C623.479 118.287 623.296 118.459 623.207 118.684C623.129 118.909 623.155 119.154 623.291 119.353Z" fill="#26305A"/>
</g>
<path opacity="0.7" d="M594.097 8.65212C594.097 8.65212 493.008 -27.697 402.619 62.0133C312.23 151.724 211.141 91.3745 211.141 91.3745C186.389 79.5527 152.423 54.3197 120.141 14.0246" stroke="url(#paint1_linear_724_1571)"/>
<circle opacity="0.7" cx="594.097" cy="8.6522" r="1.11227" transform="rotate(60 594.097 8.6522)" fill="#26305A"/>
<path opacity="0.7" d="M699.501 191.013C699.501 191.013 556.053 276.65 427.787 149.348C299.521 22.0459 156.074 107.683 156.074 107.683C121.163 130.326 41.3408 163.751 1.34277 116.311" stroke="url(#paint2_linear_724_1571)"/>
<circle opacity="0.7" cx="1.57835" cy="1.57835" r="1.57835" transform="matrix(0.5 -0.866025 -0.866025 -0.5 700.079 193.168)" fill="#26305A"/>
<defs>
<filter id="filter0_b_724_1571" x="617.642" y="114.332" width="44" height="37.3571" filterUnits="userSpaceOnUse" color-interpolation-filters="sRGB">
<feFlood flood-opacity="0" result="BackgroundImageFix"/>
<feGaussianBlur in="BackgroundImageFix" stdDeviation="1.5"/>
<feComposite in2="SourceAlpha" operator="in" result="effect1_backgroundBlur_724_1571"/>
<feBlend mode="normal" in="SourceGraphic" in2="effect1_backgroundBlur_724_1571" result="shape"/>
</filter>
<linearGradient id="paint0_linear_724_1571" x1="631.976" y1="133.907" x2="229.026" y2="133.907" gradientUnits="userSpaceOnUse">
<stop stop-color="#26305A"/>
<stop offset="1" stop-color="#26305A" stop-opacity="0"/>
</linearGradient>
<linearGradient id="paint1_linear_724_1571" x1="545.164" y1="155.353" x2="160.822" y2="-58.4116" gradientUnits="userSpaceOnUse">
<stop stop-color="#26305A"/>
<stop offset="1" stop-color="#26305A" stop-opacity="0"/>
</linearGradient>
<linearGradient id="paint2_linear_724_1571" x1="627.421" y1="315.857" x2="71.4564" y2="-5.12929" gradientUnits="userSpaceOnUse">
<stop stop-color="#26305A"/>
<stop offset="1" stop-color="#26305A" stop-opacity="0"/>
</linearGradient>
</defs>
</svg>
