<svg width="48" height="48" viewBox="0 0 48 48" fill="none" xmlns="http://www.w3.org/2000/svg">
<path fill-rule="evenodd" clip-rule="evenodd" d="M24 47C36.7025 47 47 36.7025 47 24C47 11.2975 36.7025 1 24 1C11.2975 1 1 11.2975 1 24C1 36.7025 11.2975 47 24 47ZM24 48C37.2548 48 48 37.2548 48 24C48 10.7452 37.2548 0 24 0C10.7452 0 0 10.7452 0 24C0 37.2548 10.7452 48 24 48Z" fill="#394150"/>
<path d="M31.3493 28.0631C31.3636 29.6916 31.1109 31.1589 31.9544 32.748C32.2605 32.2398 32.4562 31.932 32.6377 31.6171C32.9367 31.0909 33.2641 31.0874 33.5346 31.6099C33.7339 32 33.919 32.4223 33.9831 32.8482C34.1432 33.947 33.4065 34.7379 32.3708 34.4122C31.5735 34.1617 30.7158 33.6642 30.2139 33.0164C29.317 31.8604 28.6693 30.5076 27.9219 29.2334C27.7368 28.9149 27.5659 28.5892 27.2563 28.0237C26.4092 29.1869 25.5586 30.1139 25.0212 31.1983C24.7613 31.7244 24.9784 32.5798 25.1778 33.2204C25.3664 33.8253 25.822 34.3407 26.1494 34.9026C26.2597 35.0958 26.4626 35.4251 26.4021 35.4931C26.2491 35.6649 25.975 35.8009 25.7401 35.8152C25.2489 35.8438 24.7507 35.783 24.0353 35.7508C24.4339 36.2161 24.7364 36.5561 25.0212 36.9068C25.1742 37.0965 25.2988 37.3148 25.4376 37.5188C25.2134 37.6369 24.9962 37.8266 24.7613 37.8588C22.4942 38.1738 20.3231 38.095 18.6538 36.2089C18.5898 36.2447 18.5186 36.2626 18.5079 36.2984C18.3905 36.7028 18.2837 37.1144 18.1734 37.5224C17.8424 37.2218 17.4295 36.9748 17.1875 36.6097C15.7425 34.423 14.6356 32.0107 14.6712 29.3981C14.6996 27.3903 14.6071 25.5006 14.0519 23.5679C13.8526 22.8807 14.2725 21.9645 14.5502 21.2058C14.753 20.651 14.8064 20.2502 14.4541 19.7276C14.2334 19.4019 14.1124 18.8579 14.2156 18.4893C15.0449 15.5295 16.4507 12.8918 19.0952 11.1989C22.3767 9.09445 28.203 9.44161 30.1499 14.828C30.4133 15.5545 30.8866 16.2417 31.3849 16.843C32.0896 17.6912 32.3886 18.636 32.4028 19.7097C32.4242 21.0304 32.5309 22.3117 33.5311 23.346C33.9546 23.7862 33.7197 24.1942 33.1502 24.1191C32.2071 23.9938 32.2284 24.613 32.3245 25.157C32.4847 26.0553 32.7836 26.9286 32.9972 27.8233C33.0648 28.1132 33.0506 28.421 33.0719 28.7216C32.7659 28.6787 32.4455 28.6751 32.1572 28.5821C31.9223 28.5033 31.723 28.3101 31.3529 28.0703L31.3493 28.0631ZM19.0311 15.78L19.0133 15.8337C19.9529 15.7657 20.8926 15.6512 21.8322 15.6512C22.2094 15.6512 22.5867 15.9053 22.9675 16.0413C22.6579 16.2667 22.3732 16.6318 22.035 16.6926C21.1986 16.8465 20.3409 16.8788 19.4902 16.9253C18.3727 16.9861 18.1947 17.0577 18.2908 18.1672C18.4225 19.699 18.0702 21.102 17.5256 22.4978C17.401 22.8163 17.3619 23.1957 17.3797 23.5393C17.3904 23.7361 17.5825 24.0761 17.7107 24.0868C18.4617 24.1405 19.2198 24.1119 19.9779 24.1119C19.985 24.026 19.9885 23.9365 19.9956 23.8506C19.8319 23.7433 19.6362 23.6609 19.508 23.5214C19.3265 23.3281 19.1948 23.0883 19.0418 22.87C19.266 22.759 19.5045 22.5407 19.7145 22.5622C20.1985 22.6159 20.7146 22.7054 21.1417 22.9273C22.4016 23.5751 22.7469 24.8241 23.0636 26.0803C23.2914 26.9823 23.5406 27.877 23.8217 28.9471C24.2773 28.5892 24.5656 28.396 24.8147 28.1597C26.0818 26.9465 26.6406 25.3502 27.1673 23.7325C27.4129 22.9809 27.3097 22.3618 26.7651 21.7712C26.5409 21.5279 26.3452 21.1557 26.3274 20.8335C26.2313 19.2588 26.4911 17.8129 27.961 16.8609C28.1746 16.7249 28.3988 16.4242 28.413 16.188C28.5198 14.3663 27.2136 12.4873 25.4269 12.1509C24.199 11.9183 22.9035 11.8968 21.6506 11.9863C20.7004 12.0507 19.7643 12.4158 19.1735 13.221C19.4653 13.4358 19.718 13.6255 19.9743 13.8151C19.6682 14.0621 19.3586 14.3126 19.0916 14.5309C19.6077 14.5309 20.1985 14.5095 20.7858 14.5453C20.9602 14.556 21.1239 14.7278 21.2912 14.8244C21.1666 15.0034 21.0776 15.2897 20.9175 15.3398C20.3053 15.5295 19.6646 15.6404 19.0382 15.78H19.0311ZM17.3975 28.2242C17.5683 27.9736 17.668 27.8376 17.7569 27.6909C18.3798 26.6637 19.0204 26.6458 19.6753 27.6408C19.7572 27.7625 19.7999 27.9629 19.9067 28.0094C20.2306 28.1454 20.6399 28.3852 20.8961 28.2814C21.1381 28.1848 21.3624 27.7052 21.3624 27.3938C21.3624 26.7353 20.978 26.2736 20.2768 26.2342C19.6611 26.202 19.0382 26.1877 18.4261 26.245C17.2587 26.3559 16.9633 26.8856 17.3975 28.2206V28.2242Z" fill="#394150"/>
<path d="M21.2709 17.7272C22.2568 17.7057 23.2462 18.0564 24.0435 18.8116C24.2713 19.0264 24.2819 19.4702 24.3923 19.8102C24.0791 19.8746 23.7623 20.0142 23.4598 19.9891C22.5558 19.9139 21.6588 19.7708 20.7548 19.667C20.0999 19.5918 19.4308 19.42 19.4878 18.6255C19.5412 17.8489 20.2316 17.7379 20.883 17.7236C20.9719 17.7236 21.0574 17.7236 21.2709 17.7236V17.7272Z" fill="#394150"/>
<path d="M23.1455 21.102C22.1667 21.0554 21.3161 21.0411 20.4725 20.9481C20.3373 20.9337 20.2448 20.5472 20.1309 20.3361C20.6825 20.1929 21.2342 19.9245 21.7787 19.9352C22.3162 19.9459 22.9319 20.132 23.1455 21.1055V21.102Z" fill="#394150"/>
</svg>
