<svg width="48" height="48" viewBox="0 0 48 48" fill="none" xmlns="http://www.w3.org/2000/svg">
<path fill-rule="evenodd" clip-rule="evenodd" d="M24 47C36.7025 47 47 36.7025 47 24C47 11.2975 36.7025 1 24 1C11.2975 1 1 11.2975 1 24C1 36.7025 11.2975 47 24 47ZM24 48C37.2548 48 48 37.2548 48 24C48 10.7452 37.2548 0 24 0C10.7452 0 0 10.7452 0 24C0 37.2548 10.7452 48 24 48Z" fill="#394150"/>
<path fill-rule="evenodd" clip-rule="evenodd" d="M14.5987 20.9206C14.4419 20.9206 14.2852 20.7694 14.2852 20.6182V17.5376C14.2852 17.3864 14.4419 17.2352 14.5987 17.2352H18.4081V14.1051C18.4081 13.9539 18.5122 13.8523 18.669 13.8523H28.7951C31.197 13.8523 33.1801 15.7706 33.1801 18.0928V22.6369C33.1801 24.4547 32.188 25.8179 30.6226 26.373C30.4658 26.4238 30.4131 26.575 30.4658 26.7262L33.7019 33.7945C33.7546 33.9457 33.6492 34.1477 33.441 34.1477H29.5263C29.4222 34.1477 29.3181 34.0969 29.2654 33.9965L26.0293 26.777C25.9766 26.6766 25.8725 26.6258 25.7684 26.6258H22.8446C22.6878 26.6258 22.5837 26.7274 22.5837 26.8786V33.843C22.5837 33.9953 22.4796 34.0958 22.3228 34.0958H18.669C18.5122 34.0958 18.4081 33.9942 18.4081 33.843V26.4723H14.5987C14.4419 26.4723 14.2852 26.3211 14.2852 26.1699V23.0905C14.2852 22.9393 14.4419 22.7881 14.5987 22.7881H18.4081V20.9206H14.5987ZM22.8446 17.6888C22.6878 17.6888 22.5837 17.7904 22.5837 17.9416V22.5861C22.5837 22.7373 22.6878 22.8389 22.8446 22.8389H27.7515C28.43 22.8389 29.0045 22.2837 29.0045 21.627V18.9008C29.0045 18.244 28.43 17.6888 27.7515 17.6888H22.8446Z" fill="#394150"/>
</svg>
