<svg width="48" height="48" viewBox="0 0 48 48" fill="none" xmlns="http://www.w3.org/2000/svg">
<path fill-rule="evenodd" clip-rule="evenodd" d="M24 47C36.7025 47 47 36.7025 47 24C47 11.2975 36.7025 1 24 1C11.2975 1 1 11.2975 1 24C1 36.7025 11.2975 47 24 47ZM24 48C37.2548 48 48 37.2548 48 24C48 10.7452 37.2548 0 24 0C10.7452 0 0 10.7452 0 24C0 37.2548 10.7452 48 24 48Z" fill="#394150"/>
<path d="M32.6346 22.4724C27.9599 22.4724 23.5763 22.5742 19.2048 22.3876C18.3363 22.3512 17.5158 21.2121 16.7026 20.6038C18.0668 18.0978 21.8393 16.4085 24.9934 16.8424C28.4098 17.3125 30.9456 19.0648 32.6346 22.4724Z" fill="#394150"/>
<path d="M14.6507 27.242H33.5756C33.1569 28.8053 32.772 30.2473 32.3293 31.9002C31.8337 31.5221 31.569 31.4034 31.4247 31.1998C30.3661 29.7068 28.9346 29.3651 27.1662 29.4257C23.5814 29.5469 19.9918 29.4621 16.4022 29.4621C14.6627 29.4621 14.5231 29.2948 14.6531 27.242H14.6507Z" fill="#394150"/>
<path d="M15.6996 21.3818C16.0941 21.6072 16.2337 21.6411 16.2914 21.7283C17.6219 23.7375 19.5779 23.8926 21.748 23.8102C24.9719 23.6866 28.2055 23.7787 31.4342 23.7787C33.3878 23.7787 33.395 23.786 33.2964 25.9793C32.8994 26.0036 32.4856 26.0545 32.0694 26.0545C26.6874 26.0593 21.3053 26.0618 15.9233 26.0545C14.4629 26.0545 14.3883 25.9915 14.73 24.5422C14.973 23.5097 15.3483 22.5087 15.6996 21.3793V21.3818Z" fill="#394150"/>
<path d="M10 30.7296C10.5245 30.6957 10.9167 30.6521 11.3088 30.6496C16.7654 30.6448 22.2244 30.6545 27.681 30.6399C28.7493 30.6375 29.6491 30.8629 30.2193 32.1135C29.7862 32.1668 29.4253 32.2468 29.0669 32.2492C23.3697 32.2565 17.6749 32.2613 11.9777 32.2468C11.0634 32.2444 10.1059 32.2032 10.0024 30.7296H10Z" fill="#394150"/>
<path d="M35.4161 33.5313C35.4041 34.6074 34.8242 34.9976 33.9774 34.9976C27.3178 35.0024 20.6582 34.9952 13.9987 34.9636C13.1566 34.9588 12.5599 34.5541 12.572 33.5313H35.4161Z" fill="#394150"/>
<path d="M33.4912 32.0505C33.8954 30.5697 35.6878 30.1334 37.9446 30.8968C37.6462 32.288 36.1353 32.6952 33.4912 32.0505Z" fill="#394150"/>
<path d="M11.1788 24.8596C12.1556 25.1384 12.9736 25.1262 12.9664 26.149C12.9592 27.0724 12.2013 27.1718 11.5108 27.1669C10.7939 27.1645 9.89407 27.1306 10.0432 26.1151C10.1106 25.6497 10.7819 25.2741 11.1812 24.8572L11.1788 24.8596Z" fill="#394150"/>
<path d="M36.7583 24.8645C37.189 25.2692 37.93 25.6352 37.9878 26.0884C38.1105 27.0409 37.2395 27.1621 36.4985 27.1693C35.7888 27.1766 35.0213 27.0288 34.9972 26.1635C34.9708 25.1917 35.7743 25.1044 36.7583 24.8621V24.8645Z" fill="#394150"/>
<path d="M31.9565 14.8235C31.1289 15.5772 30.5515 16.1468 29.8995 16.6121C29.849 16.6485 29.0935 16.0111 29.0141 15.616C28.8698 14.9156 29.9981 13.5972 30.5395 13.7523C30.9509 13.8686 31.2757 14.2879 31.9565 14.8235V14.8235Z" fill="#394150"/>
<path d="M13.3683 21.4957C12.6681 20.6474 12.1773 20.0561 11.6865 19.4623C12.0811 19.1593 12.5406 18.5486 12.8558 18.6164C13.6329 18.7812 14.5856 19.0987 14.5496 20.1433C14.5375 20.5117 13.9481 20.8583 13.3683 21.4957V21.4957Z" fill="#394150"/>
<path d="M25.2199 13.7935C24.8158 14.1934 24.4476 14.8792 23.9977 14.9374C23.0233 15.0659 22.9512 14.2127 22.9512 13.459C22.9512 12.7343 23.0594 12.0097 23.9592 12C24.9673 11.9903 24.9866 12.7828 25.2199 13.7935V13.7935Z" fill="#394150"/>
<path d="M18.3677 16.6436C17.439 16.7018 16.3997 15.5869 16.5152 14.8041C16.5729 14.4091 17.0204 13.9001 17.403 13.7644C17.9876 13.5584 19.0149 14.7581 18.9355 15.5869C18.8946 16.0062 18.5121 16.3916 18.3701 16.6436H18.3677Z" fill="#394150"/>
<path d="M34.047 21.0255C33.9051 20.8171 33.5249 20.4778 33.4383 20.073C33.3156 19.5035 34.6076 18.3983 35.2837 18.5607C35.671 18.6528 36.1402 19.1424 36.2388 19.535C36.4 20.1845 35.2452 21.0376 34.0494 21.0231L34.047 21.0255Z" fill="#394150"/>
</svg>
