<svg width="48" height="48" viewBox="0 0 48 48" fill="none" xmlns="http://www.w3.org/2000/svg">
<path fill-rule="evenodd" clip-rule="evenodd" d="M24 47C36.7025 47 47 36.7025 47 24C47 11.2975 36.7025 1 24 1C11.2975 1 1 11.2975 1 24C1 36.7025 11.2975 47 24 47ZM24 48C37.2548 48 48 37.2548 48 24C48 10.7452 37.2548 0 24 0C10.7452 0 0 10.7452 0 24C0 37.2548 10.7452 48 24 48Z" fill="#394150"/>
<g clip-path="url(#clip0_980_1293)">
<path d="M12.1422 33.166C12.3565 32.37 12.583 31.5157 12.8174 30.6628C12.9725 30.1008 13.1608 29.5464 13.295 28.9795C13.5092 28.0746 13.2106 27.4051 12.3868 26.9365C11.664 26.5248 10.9181 26.1503 10.1938 25.7407C9.67658 25.4485 9.1507 25.1611 8.67604 24.8106C7.79885 24.1607 7.75918 22.8659 8.64791 22.2413C9.4782 21.6575 10.4001 21.1959 11.2845 20.6852C11.7166 20.4351 12.1682 20.2145 12.5859 19.9447C13.2272 19.5309 13.5056 18.8473 13.3116 18.1139C12.9985 16.9301 12.6241 15.761 12.3319 14.5723C12.2266 14.1445 12.1769 13.6506 12.2901 13.2354C12.5238 12.3719 13.4169 11.8879 14.3179 12.0965C15.5723 12.3867 16.8124 12.7351 18.0589 13.0569C19.317 13.3815 19.9561 13.1236 20.601 12.0235C21.1348 11.1122 21.6585 10.1954 22.1924 9.28421C22.2991 9.10225 22.421 8.92662 22.5523 8.76081C23.3581 7.74352 24.7071 7.7379 25.458 8.78962C25.942 9.46688 26.3381 10.2039 26.7659 10.9176C27.0371 11.3708 27.2838 11.838 27.563 12.2862C28.0355 13.045 28.7604 13.3449 29.6528 13.1222C30.8791 12.8159 32.0932 12.4618 33.3209 12.1597C34.3684 11.9019 35.0926 12.1619 35.563 12.8742C35.8847 13.3611 35.8623 13.8754 35.7224 14.3925C35.4064 15.5629 35.058 16.7249 34.7413 17.8954C34.4665 18.9127 34.7377 19.5723 35.6755 20.1091C36.645 20.6641 37.6369 21.1819 38.6158 21.7214C38.8127 21.8303 39.0017 21.9554 39.1842 22.0868C40.2793 22.8736 40.2757 24.2155 39.1402 24.9511C38.4145 25.4211 37.6369 25.8159 36.8795 26.241C36.4438 26.4854 35.9936 26.706 35.5673 26.9653C34.7622 27.4557 34.4737 28.1385 34.7132 29.0322C35.0364 30.2371 35.4115 31.4293 35.7224 32.6377C35.9943 33.6971 35.5709 34.5331 34.6447 34.864C34.1361 35.046 33.6246 34.9385 33.1262 34.8092C32.0528 34.5303 30.988 34.2191 29.9125 33.9465C28.6811 33.6339 28.0369 33.9072 27.4028 34.9807C26.8243 35.9607 26.2645 36.952 25.6766 37.9265C25.401 38.3824 25.0656 38.7906 24.4906 38.9304C23.7209 39.1173 23.0191 38.9304 22.5906 38.2855C21.9933 37.3869 21.4652 36.4441 20.909 35.5188C20.7763 35.2975 20.6551 35.0692 20.5188 34.85C19.9446 33.9268 19.2521 33.6472 18.1823 33.9226C16.9451 34.2409 15.7181 34.5964 14.4751 34.89C13.5006 35.1205 12.7027 34.7397 12.3291 33.9212C12.2353 33.7147 12.2151 33.4758 12.1401 33.1653L12.1422 33.166ZM10.0019 23.4989C10.2191 23.6324 10.3756 23.7364 10.5393 23.8277C11.5788 24.4045 12.6465 24.937 13.6535 25.563C14.9224 26.352 15.5031 27.7816 15.1684 29.2184C14.9361 30.216 14.6165 31.1939 14.3402 32.1824C14.2602 32.4683 14.1952 32.7585 14.1116 33.0943C14.32 33.0494 14.4585 33.0269 14.5927 32.9903C15.6293 32.7086 16.6623 32.4164 17.7011 32.1424C19.19 31.7496 20.5274 32.03 21.5691 33.159C22.0337 33.6627 22.3503 34.2992 22.7089 34.8907C23.1381 35.5996 23.5406 36.3239 23.9879 37.1003C24.1235 36.8881 24.2216 36.7448 24.3089 36.5958C24.8643 35.6432 25.3909 34.6737 25.9774 33.74C26.7406 32.5239 27.889 31.9154 29.3498 31.9976C29.9608 32.0321 30.566 32.2309 31.1662 32.384C32.0614 32.6131 32.9502 32.8674 33.8807 33.1224C33.8685 33.0093 33.8692 32.9643 33.8576 32.9222C33.5475 31.8339 33.2365 30.7457 32.9235 29.6589C32.4921 28.1624 32.8059 26.8472 34.0142 25.8159C34.4845 25.4148 35.071 25.1379 35.6185 24.8295C36.3925 24.3939 37.1796 23.9808 38.0308 23.5207C37.7682 23.3668 37.5792 23.2509 37.3851 23.1434C36.3767 22.5842 35.3321 22.079 34.3669 21.4559C33.0959 20.6353 32.5664 19.4318 32.8037 17.9495C32.8751 17.5033 33.01 17.0649 33.1341 16.628C33.3837 15.7463 33.6456 14.8681 33.9197 13.9295C33.735 13.9611 33.6189 13.9716 33.5085 14.0011C32.495 14.2737 31.4822 14.5498 30.4686 14.8252C28.425 15.3802 26.8733 14.7796 25.8021 12.9972C25.2885 12.1422 24.8052 11.2703 24.3038 10.4083C24.2151 10.2551 24.1047 10.1146 23.9893 9.94531C23.8631 10.1483 23.7613 10.3057 23.6654 10.4673C23.0616 11.4867 22.522 12.5497 21.8411 13.5178C20.9595 14.7711 19.6546 15.2482 18.1325 14.944C16.987 14.7156 15.8703 14.3545 14.7392 14.0566C14.5516 14.0075 14.3583 13.9786 14.1209 13.9316C14.1599 14.1135 14.1779 14.2274 14.2097 14.3384C14.5134 15.4041 14.8358 16.465 15.1208 17.5357C15.5529 19.1543 14.9707 20.6416 13.5208 21.5395C12.7143 22.039 11.8566 22.4605 11.0234 22.92C10.6944 23.1013 10.3691 23.2902 10.0005 23.4989H10.0019Z" fill="#394150"/>
<path d="M14.9844 23.4589C14.9844 18.6303 19.0075 14.722 23.9784 14.722C28.9718 14.722 33.0035 18.6387 32.9919 23.4779C32.9797 28.2721 28.9314 32.193 23.9972 32.1881C19.0233 32.1832 14.9844 28.2714 14.9844 23.4589V23.4589ZM24.1891 27.4381C24.5714 27.4381 24.8578 27.4417 25.1434 27.4374C25.5431 27.4318 25.6405 27.3222 25.6369 26.926C25.6239 25.6305 25.6224 24.335 25.6008 23.0395C25.595 22.6812 25.7487 22.4711 26.0841 22.3559C26.9938 22.0433 27.8861 22.051 28.7626 22.4704C29.1708 22.6657 29.6376 22.5062 29.8583 22.1072C30.0408 21.7777 29.9305 21.515 29.4601 21.2796C28.083 20.5897 26.6763 20.5756 25.2819 21.2065C24.6796 21.4791 24.1862 21.8852 24.1876 22.6306C24.1912 24.2156 24.1891 25.8005 24.1891 27.4389V27.4381ZM20.5699 20.9129C19.8846 20.9424 19.2296 21.0513 18.6215 21.3569C18.3719 21.4826 18.0747 21.5747 18.048 21.9182C18.0192 22.2885 18.2955 22.4683 18.5689 22.6004C18.7254 22.6763 18.949 22.658 19.1337 22.6292C19.3054 22.6025 19.4612 22.4901 19.6314 22.4409C20.2057 22.2758 20.7828 22.2779 21.3671 22.4093C21.8345 22.5147 22.2652 22.2456 22.3568 21.8234C22.4347 21.4616 22.232 21.2051 21.7321 21.0962C21.3497 21.0126 20.9573 20.9726 20.5692 20.9129H20.5699Z" fill="#394150"/>
</g>
<defs>
<clipPath id="clip0_980_1293">
<rect width="32" height="31" fill="white" transform="translate(8 8)"/>
</clipPath>
</defs>
</svg>
