<svg width="48" height="48" viewBox="0 0 48 48" fill="none" xmlns="http://www.w3.org/2000/svg">
<path fill-rule="evenodd" clip-rule="evenodd" d="M24 47C36.7025 47 47 36.7025 47 24C47 11.2975 36.7025 1 24 1C11.2975 1 1 11.2975 1 24C1 36.7025 11.2975 47 24 47ZM24 48C37.2548 48 48 37.2548 48 24C48 10.7452 37.2548 0 24 0C10.7452 0 0 10.7452 0 24C0 37.2548 10.7452 48 24 48Z" fill="#394150"/>
<path d="M14.0001 20.8286C14.0546 23.4121 15.0907 25.7794 17.2355 27.6447C18.2607 28.5372 19.5876 29.1474 20.0529 30.542C20.0856 30.6431 20.1983 30.7233 20.2892 30.8C21.0308 31.4415 22.1323 31.2532 22.5903 30.413C23.3937 28.9312 22.6885 26.7243 21.1616 25.9538C18.3479 24.5382 17.1301 21.3586 18.3152 18.538C19.5003 15.7209 22.6921 14.1869 25.6985 14.9888C28.3086 15.6826 30.05 17.6594 30.3553 20.2708C30.6171 22.5021 29.112 25.0333 26.8 26.1525C26.0693 26.5046 25.5458 26.9648 25.4113 27.7353C25.3168 28.2723 25.3023 28.8266 25.2768 29.3705C25.1968 31.0649 25.3786 32.7663 24.6552 34.412C24.288 35.2487 24.8369 36.2424 25.6658 36.7095C26.4655 37.1628 27.4871 37.0791 28.1996 36.5038C28.9412 35.9042 29.272 34.8966 28.803 34.0738C28.0396 32.7454 28.1341 31.3508 28.1996 29.9318C28.225 29.3531 28.4613 29.0149 29.003 28.715C32.173 26.9509 33.8743 24.2593 33.9943 20.7729C34.1833 15.4281 29.6864 11.0386 24.1244 11.0003C18.4679 10.9619 13.9747 15.2398 14.0001 20.8286ZM21.1726 18.402C19.613 19.9744 19.7366 22.3104 21.4307 23.7433C22.9538 25.0333 25.444 24.9427 26.5673 23.583C24.7788 21.8641 22.9938 20.1488 21.1726 18.402V18.402Z" fill="#394150"/>
</svg>
