<svg width="48" height="48" viewBox="0 0 48 48" fill="none" xmlns="http://www.w3.org/2000/svg">
<path fill-rule="evenodd" clip-rule="evenodd" d="M24 47C36.7025 47 47 36.7025 47 24C47 11.2975 36.7025 1 24 1C11.2975 1 1 11.2975 1 24C1 36.7025 11.2975 47 24 47ZM24 48C37.2548 48 48 37.2548 48 24C48 10.7452 37.2548 0 24 0C10.7452 0 0 10.7452 0 24C0 37.2548 10.7452 48 24 48Z" fill="#394150"/>
<path d="M14.2619 23.1914C13.5816 25.0531 13.412 27.151 14.4409 28.9355L20.4598 39.375L24.3441 32.6164L24.2833 32.51H20.5131L14.2619 23.1914Z" fill="#394150"/>
<path d="M24.2833 32.51L16.7087 19.2666C15.8067 20.1685 14.8461 21.5928 14.2619 23.1914L20.5131 32.51H24.2833Z" fill="#394150"/>
<path d="M29.858 15.1944C28.5859 13.6744 26.8538 12.4785 24.794 12.4773L12.7437 12.4701L16.6546 19.2133L16.7774 19.2138L18.6625 15.9488L29.858 15.1944Z" fill="#394150"/>
<path d="M16.7774 19.2138L32.0338 19.2759C31.336 16.6714 28.7481 12.6724 25.0616 12.4842C27.004 12.5834 28.6414 13.7406 29.858 15.1944L18.6625 15.9488L16.7774 19.2138Z" fill="#394150"/>
<path d="M28.9074 32.6574C30.8597 32.3157 32.7613 31.4136 33.7922 29.6304L39.8236 19.1981L32.0283 19.2134L31.9667 19.3192L33.8519 22.5844L28.9074 32.6574Z" fill="#394150"/>
<path d="M28.9074 32.6574L33.8519 22.5844L31.9667 19.3192L32.0283 19.2134L24.2847 32.5005C25.5168 32.8307 27.2308 32.9508 28.9074 32.6574Z" fill="#394150"/>
</svg>
